name rise42.5664peak47.7979fall81.9185.mot
datacolumns 19
datarows 18
range 14.12660900000000 14.15494700000000
endheader
time	ground_force1_vx	ground_force1_vy	ground_force1_vz	ground_force1_px	ground_force1_py	ground_force1_pz	ground_force2_vx	ground_force2_vy	ground_force2_vz	ground_force2_px	ground_force2_py	ground_force2_pz	ground_torque1_x	ground_torque1_y	ground_torque1_z	ground_torque2_x	ground_torque2_y	ground_torque2_z	
14.12660900000000	-5.96622400000000	695.78369899999996	42.73167500000000	0.17399300000000	0.00000000000000	0.11262700000000	0.00000000000000	0.00000000000000	0.00000000000000	0.00000000000000	0.00000000000000	0.00000000000000	0.00000000000000	15.56841100000000	0.00000000000000	0.00000000000000	0.00000000000000	0.00000000000000	
14.12827700000000	-6.42854500000000	697.19680700000004	42.82191400000000	0.17306800000000	0.00000000000000	0.11264900000000	0.00000000000000	0.00000000000000	0.00000000000000	0.00000000000000	0.00000000000000	0.00000000000000	0.00000000000000	15.66062700000000	0.00000000000000	0.00000000000000	0.00000000000000	0.00000000000000	
14.12994100000000	-6.89694400000000	698.66078200000004	42.91582700000000	0.17213000000000	0.00000000000000	0.11267000000000	0.00000000000000	0.00000000000000	0.00000000000000	0.00000000000000	0.00000000000000	0.00000000000000	0.00000000000000	15.75566900000000	0.00000000000000	0.00000000000000	0.00000000000000	0.00000000000000	
14.13160800000000	-7.37154400000000	700.17242399999998	43.01296000000000	0.17118000000000	0.00000000000000	0.11269100000000	0.00000000000000	0.00000000000000	0.00000000000000	0.00000000000000	0.00000000000000	0.00000000000000	0.00000000000000	15.85338300000000	0.00000000000000	0.00000000000000	0.00000000000000	0.00000000000000	
14.13327500000000	-7.85244100000000	701.72856899999999	43.11286500000000	0.17021800000000	0.00000000000000	0.11271200000000	0.00000000000000	0.00000000000000	0.00000000000000	0.00000000000000	0.00000000000000	0.00000000000000	0.00000000000000	15.95362400000000	0.00000000000000	0.00000000000000	0.00000000000000	0.00000000000000	
14.13494200000000	-8.33970000000000	703.32609400000001	43.21510500000000	0.16924600000000	0.00000000000000	0.11273200000000	0.00000000000000	0.00000000000000	0.00000000000000	0.00000000000000	0.00000000000000	0.00000000000000	0.00000000000000	16.05624700000000	0.00000000000000	0.00000000000000	0.00000000000000	0.00000000000000	
14.13661600000000	-8.83335700000000	704.96193100000005	43.31925400000000	0.16826200000000	0.00000000000000	0.11275100000000	0.00000000000000	0.00000000000000	0.00000000000000	0.00000000000000	0.00000000000000	0.00000000000000	0.00000000000000	16.16111100000000	0.00000000000000	0.00000000000000	0.00000000000000	0.00000000000000	
14.13827700000000	-9.33341600000000	706.63307499999996	43.42490200000000	0.16727000000000	0.00000000000000	0.11277000000000	0.00000000000000	0.00000000000000	0.00000000000000	0.00000000000000	0.00000000000000	0.00000000000000	0.00000000000000	16.26808000000000	0.00000000000000	0.00000000000000	0.00000000000000	0.00000000000000	
14.13994700000000	-9.83985000000000	708.33659100000000	43.53165200000000	0.16626900000000	0.00000000000000	0.11278900000000	0.00000000000000	0.00000000000000	0.00000000000000	0.00000000000000	0.00000000000000	0.00000000000000	0.00000000000000	16.37702100000000	0.00000000000000	0.00000000000000	0.00000000000000	0.00000000000000	
14.14161100000000	-10.35260300000000	710.06962599999997	43.63912200000000	0.16526000000000	0.00000000000000	0.11280600000000	0.00000000000000	0.00000000000000	0.00000000000000	0.00000000000000	0.00000000000000	0.00000000000000	0.00000000000000	16.48780300000000	0.00000000000000	0.00000000000000	0.00000000000000	0.00000000000000	
14.14327900000000	-10.87158800000000	711.82940900000006	43.74694800000000	0.16424500000000	0.00000000000000	0.11282300000000	0.00000000000000	0.00000000000000	0.00000000000000	0.00000000000000	0.00000000000000	0.00000000000000	0.00000000000000	16.60030000000000	0.00000000000000	0.00000000000000	0.00000000000000	0.00000000000000	
14.14494700000000	-11.39668500000000	713.61326799999995	43.85478600000000	0.16322400000000	0.00000000000000	0.11283900000000	0.00000000000000	0.00000000000000	0.00000000000000	0.00000000000000	0.00000000000000	0.00000000000000	0.00000000000000	16.71438800000000	0.00000000000000	0.00000000000000	0.00000000000000	0.00000000000000	
14.14661500000000	-11.92774700000000	715.41862700000001	43.96230900000000	0.16220000000000	0.00000000000000	0.11285400000000	0.00000000000000	0.00000000000000	0.00000000000000	0.00000000000000	0.00000000000000	0.00000000000000	0.00000000000000	16.82994600000000	0.00000000000000	0.00000000000000	0.00000000000000	0.00000000000000	
14.14827600000000	-12.46459600000000	717.24301500000001	44.06921100000000	0.16117200000000	0.00000000000000	0.11286900000000	0.00000000000000	0.00000000000000	0.00000000000000	0.00000000000000	0.00000000000000	0.00000000000000	0.00000000000000	16.94685400000000	0.00000000000000	0.00000000000000	0.00000000000000	0.00000000000000	
14.14994200000000	-13.00702300000000	719.08407199999999	44.17520700000000	0.16014300000000	0.00000000000000	0.11288200000000	0.00000000000000	0.00000000000000	0.00000000000000	0.00000000000000	0.00000000000000	0.00000000000000	0.00000000000000	17.06499400000000	0.00000000000000	0.00000000000000	0.00000000000000	0.00000000000000	
14.15160900000000	-13.55479300000000	720.93955000000005	44.28003300000000	0.15911300000000	0.00000000000000	0.11289400000000	0.00000000000000	0.00000000000000	0.00000000000000	0.00000000000000	0.00000000000000	0.00000000000000	0.00000000000000	17.18425000000000	0.00000000000000	0.00000000000000	0.00000000000000	0.00000000000000	
14.15327700000000	-14.10764000000000	722.80731600000001	44.38344800000000	0.15808400000000	0.00000000000000	0.11290500000000	0.00000000000000	0.00000000000000	0.00000000000000	0.00000000000000	0.00000000000000	0.00000000000000	0.00000000000000	17.30450800000000	0.00000000000000	0.00000000000000	0.00000000000000	0.00000000000000	
14.15494700000000	-14.66527200000000	724.68535799999995	44.48523300000000	0.15705700000000	0.00000000000000	0.11291500000000	0.00000000000000	0.00000000000000	0.00000000000000	0.00000000000000	0.00000000000000	0.00000000000000	0.00000000000000	17.42565200000000	0.00000000000000	0.00000000000000	0.00000000000000	0.00000000000000	
